<svg width="166" height="148" viewBox="0 0 166 148" fill="none" xmlns="http://www.w3.org/2000/svg">
<path d="M14.1106 111.647C12.2047 111.647 10.391 111.37 8.66948 110.815C6.948 110.322 5.47243 109.212 4.2428 107.485C4.85761 104.525 5.59539 101.349 6.45614 97.9575C7.37837 94.5042 8.36207 90.9892 9.40725 87.4125C10.4524 83.7742 11.4976 80.2283 12.5428 76.775C13.6495 73.26 14.6947 69.9917 15.6784 66.97C16.6621 63.9483 17.5536 61.2967 18.3528 59.015C19.1521 56.7333 19.7669 55.0067 20.1973 53.835C20.3817 53.3417 20.6891 52.6325 21.1195 51.7075C21.5498 50.7208 22.0724 49.7342 22.6873 48.7475C23.3021 47.7608 24.0091 46.9283 24.8084 46.25C25.6076 45.51 26.4684 45.14 27.3906 45.14C28.2513 45.14 29.1121 45.4483 29.9728 46.065C28.0669 50.505 26.1302 55.4075 24.1628 60.7725C22.2569 66.1375 20.4124 71.6875 18.6295 77.4225C16.8465 83.0958 15.2173 88.6458 13.7417 94.0725C12.2661 99.4992 11.0365 104.432 10.0528 108.872C10.9136 108.996 11.6206 109.088 12.1739 109.15C12.7887 109.212 13.4036 109.242 14.0184 109.242C17.9532 109.242 21.7343 108.317 25.3617 106.467C29.0506 104.679 32.4628 102.212 35.5984 99.0675C38.7954 95.8608 41.5928 92.2225 43.9906 88.1525C46.3884 84.0208 48.2328 79.6733 49.5239 75.11C50.8765 70.485 51.5528 65.8908 51.5528 61.3275C51.5528 56.3325 50.7536 52.2317 49.155 49.025C47.5565 45.7567 45.3432 43.3517 42.515 41.81C39.6869 40.2683 36.3976 39.4975 32.6473 39.4975C28.651 39.4975 25.0543 40.2992 21.8573 41.9025C18.6602 43.5058 16.1395 45.6642 14.295 48.3775C12.4506 51.0908 11.5284 54.1433 11.5284 57.535C11.5284 58.275 11.5591 58.9225 11.6206 59.4775C11.7436 60.0325 11.8665 60.5258 11.9895 60.9575C9.96059 60.9575 8.51577 60.4642 7.65503 59.4775C6.85577 58.4292 6.45614 57.1958 6.45614 55.7775C6.45614 53.6192 7.19392 51.4608 8.66948 49.3025C10.2065 47.0825 12.2969 45.0475 14.9406 43.1975C17.6458 41.3475 20.7506 39.8675 24.255 38.7575C27.7595 37.5858 31.4791 37 35.4139 37C40.9473 37 45.3739 38.1408 48.6939 40.4225C52.0754 42.6425 54.5347 45.6642 56.0717 49.4875C57.6087 53.3108 58.3773 57.5967 58.3773 62.345C58.3773 67.71 57.5473 72.8592 55.8873 77.7925C54.2273 82.6642 51.9217 87.1658 48.9706 91.2975C46.081 95.3675 42.761 98.9442 39.0106 102.027C35.2602 105.049 31.2332 107.392 26.9295 109.057C22.6873 110.784 18.4143 111.647 14.1106 111.647Z" fill="black"/>
<path d="M49.8884 115.132C48.6178 115.132 47.5521 114.7 46.6913 113.837C45.7897 113.015 45.3387 111.74 45.3387 110.013C45.3387 108.533 45.6667 106.95 46.3224 105.265C46.9783 103.538 47.88 101.853 49.0277 100.208C50.1753 98.523 51.4664 97.0017 52.901 95.645C54.3766 94.247 55.9136 93.137 57.5121 92.315C59.1516 91.493 60.7707 91.0817 62.3693 91.0817C63.9678 91.0817 65.2995 91.5133 66.3656 92.3767C67.4311 93.1987 67.9641 94.3087 67.9641 95.7067C67.9641 96.7347 67.677 97.4333 67.1034 97.8033C66.5703 98.1733 65.8528 98.3583 64.9515 98.3583C65.0333 98.0297 65.0948 97.68 65.136 97.31C65.2177 96.8987 65.2589 96.5287 65.2589 96.2C65.2589 95.2547 65.0333 94.453 64.5826 93.795C64.1314 93.0963 63.353 92.7467 62.2463 92.7467C61.0985 92.7467 59.9304 93.158 58.7418 93.98C57.5531 94.7613 56.4055 95.83 55.2988 97.1867C54.1921 98.502 53.2084 99.9413 52.3477 101.503C51.487 103.065 50.8107 104.607 50.3188 106.128C49.827 107.65 49.581 109.006 49.581 110.198C49.581 111.802 50.1344 112.603 51.241 112.603C52.1837 112.603 53.2084 112.172 54.3151 111.308C55.4218 110.404 56.5489 109.273 57.6966 107.917C58.8852 106.519 60.0123 105.08 61.0781 103.6C62.1437 102.12 63.0862 100.763 63.9063 99.53C64.0699 99.2833 64.1726 99.16 64.2137 99.16C64.4597 99.2013 64.7671 99.2833 65.136 99.4067C65.5454 99.53 65.894 99.6947 66.1812 99.9C66.4677 100.105 66.6115 100.373 66.6115 100.702C66.6115 101.072 66.4271 101.585 66.0582 102.243C65.6893 102.86 65.2792 103.58 64.8286 104.402C64.3773 105.224 63.9678 106.067 63.5989 106.93C63.23 107.752 63.0456 108.533 63.0456 109.273C63.0456 109.89 63.2091 110.507 63.5375 111.123C63.8651 111.699 64.3982 111.987 65.136 111.987C66.2426 111.987 67.6973 111.185 69.5012 109.582C71.3044 107.937 73.1286 105.491 74.973 102.243L75.5878 102.86C74.7271 105.08 73.6204 107.033 72.2678 108.718C70.9152 110.404 69.46 111.72 67.9026 112.665C66.3859 113.61 64.89 114.083 63.4145 114.083C61.8977 114.083 60.7707 113.631 60.0329 112.727C59.3361 111.822 58.9877 110.835 58.9877 109.767C58.9877 109.52 59.0082 109.253 59.0492 108.965C59.0901 108.636 59.1311 108.307 59.1721 107.978C57.4096 110.363 55.7907 112.151 54.3151 113.343C52.8805 114.535 51.4049 115.132 49.8884 115.132ZM84.3514 113.837C82.9582 113.837 81.8516 113.467 81.0314 112.727C80.253 111.987 79.8632 111.02 79.8632 109.828C79.8632 108.595 80.1504 107.3 80.724 105.943C81.2982 104.587 81.8516 103.25 82.384 101.935C82.9582 100.578 83.2447 99.3654 83.2447 98.2967C83.2447 96.9813 82.8555 96.015 82.0766 95.3983C81.3388 94.7404 80.5807 94.1447 79.8018 93.61C78.8593 96.0354 77.8755 98.338 76.8507 100.517C75.8264 102.695 74.9859 104.34 74.3299 105.45L73.7766 104.402C74.3508 103.333 75.0886 101.77 75.9899 99.715C76.933 97.6597 77.8553 95.3163 78.7566 92.685C78.3471 92.2737 78.1418 91.7804 78.1418 91.205C78.1418 89.9717 78.4904 88.9647 79.1869 88.1833C79.8841 87.402 80.3963 87.0117 80.724 87.0117C81.1753 87.0117 81.4212 87.217 81.4618 87.6283C81.5441 87.9983 81.5847 88.2863 81.5847 88.4917C81.5847 88.697 81.4618 89.1083 81.2158 89.725C81.0111 90.3004 80.9084 90.65 80.9084 90.7733C80.9084 91.3487 81.2158 91.8833 81.8307 92.3767C82.4867 92.8287 83.2244 93.3633 84.044 93.98C84.8641 94.5554 85.581 95.275 86.1958 96.1383C86.8518 96.9604 87.1795 98.0297 87.1795 99.345C87.1795 100.578 86.9133 101.832 86.3803 103.107C85.8884 104.381 85.3763 105.594 84.8432 106.745C84.3514 107.896 84.1055 108.903 84.1055 109.767C84.1055 110.507 84.2899 111 84.6588 111.247C85.0277 111.493 85.4581 111.617 85.9499 111.617C86.9336 111.617 87.9382 111.308 88.9625 110.692C90.0286 110.075 91.0529 109.294 92.0366 108.348C93.0203 107.403 93.9019 106.416 94.6803 105.388C95.4593 104.32 96.0329 103.333 96.4018 102.428L97.201 103.045C96.4227 104.772 95.3566 106.478 94.004 108.163C92.6514 109.808 91.1353 111.165 89.4544 112.233C87.8153 113.302 86.1141 113.837 84.3514 113.837ZM103.882 76.7133C103.594 76.508 103.328 76.2613 103.082 75.9733C102.836 75.6854 102.713 75.3567 102.713 74.9867C102.713 74.452 103.001 73.7737 103.574 72.9517C104.148 72.0883 104.742 71.2047 105.357 70.3C105.972 69.3954 106.382 68.5733 106.587 67.8333C106.997 67.8333 107.345 68.0183 107.632 68.3883C107.96 68.717 108.124 69.108 108.124 69.56C108.124 70.0947 107.878 70.773 107.386 71.595C106.894 72.417 106.3 73.2804 105.603 74.185C104.947 75.0897 104.373 75.932 103.882 76.7133ZM123.972 115.07C122.209 115.07 120.857 114.556 119.914 113.528C118.971 112.5 118.5 110.98 118.5 108.965C118.5 107.156 118.828 104.936 119.484 102.305C120.18 99.633 121.041 96.8987 122.066 94.1033C121.656 94.0213 121.267 93.9597 120.898 93.9183C120.529 93.8363 120.18 93.7333 119.853 93.61V92.5C120.18 92.5413 120.57 92.582 121.021 92.6233C121.471 92.6647 121.984 92.7054 122.558 92.7467C123.419 90.5267 124.341 88.3887 125.324 86.3333C126.308 84.2367 127.271 82.3867 128.214 80.7833C129.198 79.1387 130.12 77.8437 130.981 76.8983C131.882 75.9117 132.641 75.4183 133.256 75.4183C133.583 75.4183 133.87 75.5417 134.116 75.7883C134.403 75.9937 134.547 76.323 134.547 76.775C134.547 77.4737 134.116 78.625 133.256 80.2283C132.395 81.7904 131.329 83.6613 130.059 85.84C128.788 88.0187 127.558 90.383 126.37 92.9317C126.739 92.9317 127.107 92.9317 127.476 92.9317C127.886 92.9317 128.276 92.9317 128.644 92.9317C129.997 92.9317 131.411 92.9113 132.887 92.87C134.403 92.8287 135.92 92.7263 137.436 92.5617V93.6717C135.182 93.9183 133.153 94.1033 131.35 94.2267C129.587 94.35 128.009 94.4117 126.616 94.4117C126.451 94.4117 126.287 94.4117 126.124 94.4117C126.001 94.4117 125.857 94.4117 125.693 94.4117C124.75 96.5904 123.951 98.8313 123.296 101.133C122.64 103.435 122.312 105.676 122.312 107.855C122.312 109.623 122.578 110.897 123.111 111.678C123.644 112.418 124.525 112.788 125.755 112.788C127.886 112.788 129.976 111.843 132.026 109.952C134.075 108.06 135.878 105.491 137.436 102.243L138.236 102.86C137.252 105.162 136.001 107.238 134.485 109.088C133.01 110.938 131.37 112.398 129.567 113.467C127.763 114.535 125.898 115.07 123.972 115.07Z" fill="black"/>
</svg>
